<mxfile modified="2019-12-03T06:53:04.497Z" host="www.draw.io" agent="Mozilla/5.0 (Windows NT 10.0; Win64; x64) AppleWebKit/537.36 (KHTML, like Gecko) Chrome/78.0.3904.108 Safari/537.36" etag="Zgp2kZao8EyjABFfA_CD" version="12.3.5" type="github" pages="1">
  <diagram id="32oj4He7t5rE2V8cwPCU" name="Page-1">
    <mxGraphModel dx="782" dy="478" grid="1" gridSize="10" guides="1" tooltips="1" connect="1" arrows="1" fold="1" page="1" pageScale="1" pageWidth="850" pageHeight="1100" math="0" shadow="0">
      <root>
        <mxCell id="0"/>
        <mxCell id="1" parent="0"/>
        <mxCell id="2zjZDI-oLlEaG4J_gdMW-381" value="ADD 18&amp;nbsp;" style="text;html=1;strokeColor=#6c8ebf;fillColor=#dae8fc;align=center;verticalAlign=middle;whiteSpace=wrap;rounded=0;fontSize=16;" parent="1" vertex="1">
          <mxGeometry x="40" y="40" width="80" height="40" as="geometry"/>
        </mxCell>
        <mxCell id="2zjZDI-oLlEaG4J_gdMW-383" value="18&lt;div style=&quot;text-align: center&quot;&gt;&lt;/div&gt;" style="ellipse;whiteSpace=wrap;html=1;strokeColor=#000000;strokeWidth=2;fillColor=none;fontSize=16;align=center;" parent="1" vertex="1">
          <mxGeometry x="200" y="40" width="40" height="40" as="geometry"/>
        </mxCell>
        <mxCell id="2zjZDI-oLlEaG4J_gdMW-384" value="ADD 21&amp;nbsp;" style="text;html=1;strokeColor=#6c8ebf;fillColor=#dae8fc;align=center;verticalAlign=middle;whiteSpace=wrap;rounded=0;fontSize=16;" parent="1" vertex="1">
          <mxGeometry x="40" y="120" width="80" height="40" as="geometry"/>
        </mxCell>
        <mxCell id="2zjZDI-oLlEaG4J_gdMW-385" value="18&amp;nbsp; &amp;nbsp; &amp;nbsp;21&lt;div style=&quot;text-align: center&quot;&gt;&lt;/div&gt;" style="ellipse;whiteSpace=wrap;html=1;strokeColor=#000000;strokeWidth=2;fillColor=none;fontSize=16;align=center;" parent="1" vertex="1">
          <mxGeometry x="200" y="120" width="100" height="40" as="geometry"/>
        </mxCell>
        <mxCell id="2zjZDI-oLlEaG4J_gdMW-386" value="ADD 25&amp;nbsp;" style="text;html=1;strokeColor=#6c8ebf;fillColor=#dae8fc;align=center;verticalAlign=middle;whiteSpace=wrap;rounded=0;fontSize=16;" parent="1" vertex="1">
          <mxGeometry x="40" y="240" width="80" height="40" as="geometry"/>
        </mxCell>
        <mxCell id="2zjZDI-oLlEaG4J_gdMW-387" value="18&amp;nbsp; &amp;nbsp; &amp;nbsp;21&amp;nbsp; &amp;nbsp; &amp;nbsp;25&lt;div style=&quot;text-align: center&quot;&gt;&lt;/div&gt;" style="ellipse;whiteSpace=wrap;html=1;strokeColor=#000000;strokeWidth=2;fillColor=none;fontSize=16;align=center;" parent="1" vertex="1">
          <mxGeometry x="200" y="240" width="160" height="40" as="geometry"/>
        </mxCell>
        <mxCell id="2zjZDI-oLlEaG4J_gdMW-388" value="21&lt;div style=&quot;text-align: center&quot;&gt;&lt;/div&gt;" style="ellipse;whiteSpace=wrap;html=1;strokeColor=#000000;strokeWidth=2;fillColor=none;fontSize=16;align=center;" parent="1" vertex="1">
          <mxGeometry x="520" y="200" width="40" height="40" as="geometry"/>
        </mxCell>
        <mxCell id="2zjZDI-oLlEaG4J_gdMW-390" value="" style="endArrow=none;html=1;fontSize=16;entryX=0.5;entryY=1;entryDx=0;entryDy=0;exitX=0.5;exitY=0;exitDx=0;exitDy=0;" parent="1" source="2zjZDI-oLlEaG4J_gdMW-392" target="2zjZDI-oLlEaG4J_gdMW-388" edge="1">
          <mxGeometry width="50" height="50" relative="1" as="geometry">
            <mxPoint x="500" y="260" as="sourcePoint"/>
            <mxPoint x="90" y="300" as="targetPoint"/>
          </mxGeometry>
        </mxCell>
        <mxCell id="2zjZDI-oLlEaG4J_gdMW-391" value="" style="endArrow=none;html=1;fontSize=16;entryX=0.5;entryY=1;entryDx=0;entryDy=0;exitX=0.5;exitY=0;exitDx=0;exitDy=0;" parent="1" source="2zjZDI-oLlEaG4J_gdMW-395" target="2zjZDI-oLlEaG4J_gdMW-388" edge="1">
          <mxGeometry width="50" height="50" relative="1" as="geometry">
            <mxPoint x="610" y="260" as="sourcePoint"/>
            <mxPoint x="90" y="300" as="targetPoint"/>
          </mxGeometry>
        </mxCell>
        <mxCell id="2zjZDI-oLlEaG4J_gdMW-392" value="18&lt;div style=&quot;text-align: center&quot;&gt;&lt;/div&gt;" style="ellipse;whiteSpace=wrap;html=1;strokeColor=#000000;strokeWidth=2;fillColor=none;fontSize=16;align=center;" parent="1" vertex="1">
          <mxGeometry x="480" y="280" width="40" height="40" as="geometry"/>
        </mxCell>
        <mxCell id="2zjZDI-oLlEaG4J_gdMW-395" value="25&lt;div style=&quot;text-align: center&quot;&gt;&lt;/div&gt;" style="ellipse;whiteSpace=wrap;html=1;strokeColor=#000000;strokeWidth=2;fillColor=none;fontSize=16;align=center;" parent="1" vertex="1">
          <mxGeometry x="560" y="280" width="40" height="40" as="geometry"/>
        </mxCell>
        <mxCell id="2zjZDI-oLlEaG4J_gdMW-397" value="" style="endArrow=classic;html=1;fontSize=16;" parent="1" edge="1">
          <mxGeometry width="50" height="50" relative="1" as="geometry">
            <mxPoint x="400" y="260" as="sourcePoint"/>
            <mxPoint x="440" y="260" as="targetPoint"/>
          </mxGeometry>
        </mxCell>
        <mxCell id="2zjZDI-oLlEaG4J_gdMW-398" value="ADD 26&amp;nbsp;" style="text;html=1;strokeColor=#6c8ebf;fillColor=#dae8fc;align=center;verticalAlign=middle;whiteSpace=wrap;rounded=0;fontSize=16;" parent="1" vertex="1">
          <mxGeometry x="40" y="360" width="80" height="40" as="geometry"/>
        </mxCell>
        <mxCell id="2zjZDI-oLlEaG4J_gdMW-399" value="21&lt;div style=&quot;text-align: center&quot;&gt;&lt;/div&gt;" style="ellipse;whiteSpace=wrap;html=1;strokeColor=#000000;strokeWidth=2;fillColor=none;fontSize=16;align=center;" parent="1" vertex="1">
          <mxGeometry x="240" y="360" width="40" height="40" as="geometry"/>
        </mxCell>
        <mxCell id="2zjZDI-oLlEaG4J_gdMW-400" value="" style="endArrow=none;html=1;fontSize=16;entryX=0.5;entryY=1;entryDx=0;entryDy=0;exitX=0.5;exitY=0;exitDx=0;exitDy=0;" parent="1" source="2zjZDI-oLlEaG4J_gdMW-402" target="2zjZDI-oLlEaG4J_gdMW-399" edge="1">
          <mxGeometry width="50" height="50" relative="1" as="geometry">
            <mxPoint x="220" y="420" as="sourcePoint"/>
            <mxPoint x="-190" y="460" as="targetPoint"/>
          </mxGeometry>
        </mxCell>
        <mxCell id="2zjZDI-oLlEaG4J_gdMW-401" value="" style="endArrow=none;html=1;fontSize=16;entryX=0.5;entryY=1;entryDx=0;entryDy=0;exitX=0.5;exitY=0;exitDx=0;exitDy=0;" parent="1" source="2zjZDI-oLlEaG4J_gdMW-403" target="2zjZDI-oLlEaG4J_gdMW-399" edge="1">
          <mxGeometry width="50" height="50" relative="1" as="geometry">
            <mxPoint x="330" y="420" as="sourcePoint"/>
            <mxPoint x="-190" y="460" as="targetPoint"/>
          </mxGeometry>
        </mxCell>
        <mxCell id="2zjZDI-oLlEaG4J_gdMW-402" value="18&lt;div style=&quot;text-align: center&quot;&gt;&lt;/div&gt;" style="ellipse;whiteSpace=wrap;html=1;strokeColor=#000000;strokeWidth=2;fillColor=none;fontSize=16;align=center;" parent="1" vertex="1">
          <mxGeometry x="200" y="440" width="40" height="40" as="geometry"/>
        </mxCell>
        <mxCell id="2zjZDI-oLlEaG4J_gdMW-403" value="25&amp;nbsp; &amp;nbsp; &amp;nbsp;26&lt;div style=&quot;text-align: center&quot;&gt;&lt;/div&gt;" style="ellipse;whiteSpace=wrap;html=1;strokeColor=#000000;strokeWidth=2;fillColor=none;fontSize=16;align=center;" parent="1" vertex="1">
          <mxGeometry x="280" y="440" width="100" height="40" as="geometry"/>
        </mxCell>
        <mxCell id="2zjZDI-oLlEaG4J_gdMW-405" value="ADD 28&amp;nbsp;" style="text;html=1;strokeColor=#6c8ebf;fillColor=#dae8fc;align=center;verticalAlign=middle;whiteSpace=wrap;rounded=0;fontSize=16;" parent="1" vertex="1">
          <mxGeometry x="40" y="520" width="80" height="40" as="geometry"/>
        </mxCell>
        <mxCell id="2zjZDI-oLlEaG4J_gdMW-406" value="21&lt;div style=&quot;text-align: center&quot;&gt;&lt;/div&gt;" style="ellipse;whiteSpace=wrap;html=1;strokeColor=#000000;strokeWidth=2;fillColor=none;fontSize=16;align=center;" parent="1" vertex="1">
          <mxGeometry x="240" y="520" width="40" height="40" as="geometry"/>
        </mxCell>
        <mxCell id="2zjZDI-oLlEaG4J_gdMW-407" value="" style="endArrow=none;html=1;fontSize=16;entryX=0.5;entryY=1;entryDx=0;entryDy=0;exitX=0.5;exitY=0;exitDx=0;exitDy=0;" parent="1" source="2zjZDI-oLlEaG4J_gdMW-409" target="2zjZDI-oLlEaG4J_gdMW-406" edge="1">
          <mxGeometry width="50" height="50" relative="1" as="geometry">
            <mxPoint x="220" y="580" as="sourcePoint"/>
            <mxPoint x="-190" y="620" as="targetPoint"/>
          </mxGeometry>
        </mxCell>
        <mxCell id="2zjZDI-oLlEaG4J_gdMW-408" value="" style="endArrow=none;html=1;fontSize=16;entryX=0.5;entryY=1;entryDx=0;entryDy=0;exitX=0.5;exitY=0;exitDx=0;exitDy=0;" parent="1" source="2zjZDI-oLlEaG4J_gdMW-410" target="2zjZDI-oLlEaG4J_gdMW-406" edge="1">
          <mxGeometry width="50" height="50" relative="1" as="geometry">
            <mxPoint x="330" y="580" as="sourcePoint"/>
            <mxPoint x="-190" y="620" as="targetPoint"/>
          </mxGeometry>
        </mxCell>
        <mxCell id="2zjZDI-oLlEaG4J_gdMW-409" value="18&lt;div style=&quot;text-align: center&quot;&gt;&lt;/div&gt;" style="ellipse;whiteSpace=wrap;html=1;strokeColor=#000000;strokeWidth=2;fillColor=none;fontSize=16;align=center;" parent="1" vertex="1">
          <mxGeometry x="200" y="600" width="40" height="40" as="geometry"/>
        </mxCell>
        <mxCell id="2zjZDI-oLlEaG4J_gdMW-410" value="25&amp;nbsp; &amp;nbsp; &amp;nbsp;26&amp;nbsp; &amp;nbsp; &amp;nbsp;28&lt;div style=&quot;text-align: center&quot;&gt;&lt;/div&gt;" style="ellipse;whiteSpace=wrap;html=1;strokeColor=#000000;strokeWidth=2;fillColor=none;fontSize=16;align=center;" parent="1" vertex="1">
          <mxGeometry x="280" y="600" width="160" height="40" as="geometry"/>
        </mxCell>
        <mxCell id="2zjZDI-oLlEaG4J_gdMW-411" value="" style="endArrow=classic;html=1;fontSize=16;" parent="1" edge="1">
          <mxGeometry width="50" height="50" relative="1" as="geometry">
            <mxPoint x="480" y="580" as="sourcePoint"/>
            <mxPoint x="520" y="580" as="targetPoint"/>
          </mxGeometry>
        </mxCell>
        <mxCell id="2zjZDI-oLlEaG4J_gdMW-412" value="21&amp;nbsp; &amp;nbsp; &amp;nbsp;26&lt;div style=&quot;text-align: center&quot;&gt;&lt;/div&gt;" style="ellipse;whiteSpace=wrap;html=1;strokeColor=#000000;strokeWidth=2;fillColor=none;fontSize=16;align=center;" parent="1" vertex="1">
          <mxGeometry x="250" y="680" width="100" height="40" as="geometry"/>
        </mxCell>
        <mxCell id="2zjZDI-oLlEaG4J_gdMW-417" value="25&lt;div style=&quot;text-align: center&quot;&gt;&lt;/div&gt;" style="ellipse;whiteSpace=wrap;html=1;strokeColor=#000000;strokeWidth=2;fillColor=none;fontSize=16;align=center;" parent="1" vertex="1">
          <mxGeometry x="280" y="760" width="40" height="40" as="geometry"/>
        </mxCell>
        <mxCell id="2zjZDI-oLlEaG4J_gdMW-413" value="" style="endArrow=none;html=1;fontSize=16;entryX=0.5;entryY=1;entryDx=0;entryDy=0;exitX=0.5;exitY=0;exitDx=0;exitDy=0;" parent="1" source="2zjZDI-oLlEaG4J_gdMW-415" target="2zjZDI-oLlEaG4J_gdMW-412" edge="1">
          <mxGeometry width="50" height="50" relative="1" as="geometry">
            <mxPoint x="220" y="740" as="sourcePoint"/>
            <mxPoint x="-190" y="780" as="targetPoint"/>
          </mxGeometry>
        </mxCell>
        <mxCell id="2zjZDI-oLlEaG4J_gdMW-414" value="" style="endArrow=none;html=1;fontSize=16;entryX=0.5;entryY=1;entryDx=0;entryDy=0;exitX=0.5;exitY=0;exitDx=0;exitDy=0;" parent="1" source="2zjZDI-oLlEaG4J_gdMW-416" target="2zjZDI-oLlEaG4J_gdMW-412" edge="1">
          <mxGeometry width="50" height="50" relative="1" as="geometry">
            <mxPoint x="330" y="740" as="sourcePoint"/>
            <mxPoint x="-190" y="780" as="targetPoint"/>
          </mxGeometry>
        </mxCell>
        <mxCell id="2zjZDI-oLlEaG4J_gdMW-415" value="18&lt;div style=&quot;text-align: center&quot;&gt;&lt;/div&gt;" style="ellipse;whiteSpace=wrap;html=1;strokeColor=#000000;strokeWidth=2;fillColor=none;fontSize=16;align=center;" parent="1" vertex="1">
          <mxGeometry x="200" y="760" width="40" height="40" as="geometry"/>
        </mxCell>
        <mxCell id="2zjZDI-oLlEaG4J_gdMW-416" value="28&amp;nbsp; &amp;nbsp; &amp;nbsp;31&lt;div style=&quot;text-align: center&quot;&gt;&lt;/div&gt;" style="ellipse;whiteSpace=wrap;html=1;strokeColor=#000000;strokeWidth=2;fillColor=none;fontSize=16;align=center;" parent="1" vertex="1">
          <mxGeometry x="360" y="760" width="100" height="40" as="geometry"/>
        </mxCell>
        <mxCell id="2zjZDI-oLlEaG4J_gdMW-421" value="" style="endArrow=none;html=1;fontSize=16;entryX=0.5;entryY=1;entryDx=0;entryDy=0;exitX=0.5;exitY=0;exitDx=0;exitDy=0;" parent="1" source="2zjZDI-oLlEaG4J_gdMW-417" target="2zjZDI-oLlEaG4J_gdMW-412" edge="1">
          <mxGeometry width="50" height="50" relative="1" as="geometry">
            <mxPoint x="280" y="760" as="sourcePoint"/>
            <mxPoint x="305" y="735" as="targetPoint"/>
          </mxGeometry>
        </mxCell>
        <mxCell id="2zjZDI-oLlEaG4J_gdMW-422" value="ADD 31&amp;nbsp;" style="text;html=1;strokeColor=#6c8ebf;fillColor=#dae8fc;align=center;verticalAlign=middle;whiteSpace=wrap;rounded=0;fontSize=16;" parent="1" vertex="1">
          <mxGeometry x="40" y="680" width="80" height="40" as="geometry"/>
        </mxCell>
        <mxCell id="2zjZDI-oLlEaG4J_gdMW-423" value="ADD 32&amp;nbsp;" style="text;html=1;strokeColor=#6c8ebf;fillColor=#dae8fc;align=center;verticalAlign=middle;whiteSpace=wrap;rounded=0;fontSize=16;" parent="1" vertex="1">
          <mxGeometry x="40" y="880" width="80" height="40" as="geometry"/>
        </mxCell>
        <mxCell id="2zjZDI-oLlEaG4J_gdMW-424" value="21&amp;nbsp; &amp;nbsp; &amp;nbsp;26&lt;div style=&quot;text-align: center&quot;&gt;&lt;/div&gt;" style="ellipse;whiteSpace=wrap;html=1;strokeColor=#000000;strokeWidth=2;fillColor=none;fontSize=16;align=center;" parent="1" vertex="1">
          <mxGeometry x="250" y="880" width="100" height="40" as="geometry"/>
        </mxCell>
        <mxCell id="2zjZDI-oLlEaG4J_gdMW-425" value="25&lt;div style=&quot;text-align: center&quot;&gt;&lt;/div&gt;" style="ellipse;whiteSpace=wrap;html=1;strokeColor=#000000;strokeWidth=2;fillColor=none;fontSize=16;align=center;" parent="1" vertex="1">
          <mxGeometry x="280" y="960" width="40" height="40" as="geometry"/>
        </mxCell>
        <mxCell id="2zjZDI-oLlEaG4J_gdMW-426" value="" style="endArrow=none;html=1;fontSize=16;entryX=0.5;entryY=1;entryDx=0;entryDy=0;exitX=0.5;exitY=0;exitDx=0;exitDy=0;" parent="1" source="2zjZDI-oLlEaG4J_gdMW-428" target="2zjZDI-oLlEaG4J_gdMW-424" edge="1">
          <mxGeometry width="50" height="50" relative="1" as="geometry">
            <mxPoint x="220" y="940" as="sourcePoint"/>
            <mxPoint x="-190" y="980" as="targetPoint"/>
          </mxGeometry>
        </mxCell>
        <mxCell id="2zjZDI-oLlEaG4J_gdMW-427" value="" style="endArrow=none;html=1;fontSize=16;entryX=0.5;entryY=1;entryDx=0;entryDy=0;exitX=0.5;exitY=0;exitDx=0;exitDy=0;" parent="1" source="2zjZDI-oLlEaG4J_gdMW-429" target="2zjZDI-oLlEaG4J_gdMW-424" edge="1">
          <mxGeometry width="50" height="50" relative="1" as="geometry">
            <mxPoint x="330" y="940" as="sourcePoint"/>
            <mxPoint x="-190" y="980" as="targetPoint"/>
          </mxGeometry>
        </mxCell>
        <mxCell id="2zjZDI-oLlEaG4J_gdMW-428" value="18&lt;div style=&quot;text-align: center&quot;&gt;&lt;/div&gt;" style="ellipse;whiteSpace=wrap;html=1;strokeColor=#000000;strokeWidth=2;fillColor=none;fontSize=16;align=center;" parent="1" vertex="1">
          <mxGeometry x="200" y="960" width="40" height="40" as="geometry"/>
        </mxCell>
        <mxCell id="2zjZDI-oLlEaG4J_gdMW-429" value="28&amp;nbsp; &amp;nbsp; &amp;nbsp;31&amp;nbsp; &amp;nbsp; &amp;nbsp;32&lt;div style=&quot;text-align: center&quot;&gt;&lt;/div&gt;" style="ellipse;whiteSpace=wrap;html=1;strokeColor=#000000;strokeWidth=2;fillColor=none;fontSize=16;align=center;" parent="1" vertex="1">
          <mxGeometry x="360" y="960" width="160" height="40" as="geometry"/>
        </mxCell>
        <mxCell id="2zjZDI-oLlEaG4J_gdMW-430" value="" style="endArrow=none;html=1;fontSize=16;entryX=0.5;entryY=1;entryDx=0;entryDy=0;exitX=0.5;exitY=0;exitDx=0;exitDy=0;" parent="1" source="2zjZDI-oLlEaG4J_gdMW-425" target="2zjZDI-oLlEaG4J_gdMW-424" edge="1">
          <mxGeometry width="50" height="50" relative="1" as="geometry">
            <mxPoint x="280" y="960" as="sourcePoint"/>
            <mxPoint x="305" y="935" as="targetPoint"/>
          </mxGeometry>
        </mxCell>
        <mxCell id="2zjZDI-oLlEaG4J_gdMW-431" value="" style="endArrow=classic;html=1;fontSize=16;" parent="1" edge="1">
          <mxGeometry width="50" height="50" relative="1" as="geometry">
            <mxPoint x="560" y="940" as="sourcePoint"/>
            <mxPoint x="600" y="940" as="targetPoint"/>
          </mxGeometry>
        </mxCell>
        <mxCell id="2zjZDI-oLlEaG4J_gdMW-432" value="21&amp;nbsp; &amp;nbsp; &amp;nbsp;26&amp;nbsp; &amp;nbsp; &amp;nbsp;31&lt;div style=&quot;text-align: center&quot;&gt;&lt;/div&gt;" style="ellipse;whiteSpace=wrap;html=1;strokeColor=#000000;strokeWidth=2;fillColor=none;fontSize=16;align=center;" parent="1" vertex="1">
          <mxGeometry x="700" y="880" width="160" height="40" as="geometry"/>
        </mxCell>
        <mxCell id="2zjZDI-oLlEaG4J_gdMW-433" value="25&lt;div style=&quot;text-align: center&quot;&gt;&lt;/div&gt;" style="ellipse;whiteSpace=wrap;html=1;strokeColor=#000000;strokeWidth=2;fillColor=none;fontSize=16;align=center;" parent="1" vertex="1">
          <mxGeometry x="720" y="960" width="40" height="40" as="geometry"/>
        </mxCell>
        <mxCell id="2zjZDI-oLlEaG4J_gdMW-434" value="" style="endArrow=none;html=1;fontSize=16;entryX=0.5;entryY=1;entryDx=0;entryDy=0;exitX=0.5;exitY=0;exitDx=0;exitDy=0;" parent="1" source="2zjZDI-oLlEaG4J_gdMW-436" target="2zjZDI-oLlEaG4J_gdMW-432" edge="1">
          <mxGeometry width="50" height="50" relative="1" as="geometry">
            <mxPoint x="660" y="940" as="sourcePoint"/>
            <mxPoint x="250" y="980" as="targetPoint"/>
          </mxGeometry>
        </mxCell>
        <mxCell id="2zjZDI-oLlEaG4J_gdMW-435" value="" style="endArrow=none;html=1;fontSize=16;entryX=0.5;entryY=1;entryDx=0;entryDy=0;exitX=0.5;exitY=0;exitDx=0;exitDy=0;" parent="1" source="2zjZDI-oLlEaG4J_gdMW-437" target="2zjZDI-oLlEaG4J_gdMW-432" edge="1">
          <mxGeometry width="50" height="50" relative="1" as="geometry">
            <mxPoint x="770" y="940" as="sourcePoint"/>
            <mxPoint x="250" y="980" as="targetPoint"/>
          </mxGeometry>
        </mxCell>
        <mxCell id="2zjZDI-oLlEaG4J_gdMW-436" value="18&lt;div style=&quot;text-align: center&quot;&gt;&lt;/div&gt;" style="ellipse;whiteSpace=wrap;html=1;strokeColor=#000000;strokeWidth=2;fillColor=none;fontSize=16;align=center;" parent="1" vertex="1">
          <mxGeometry x="640" y="960" width="40" height="40" as="geometry"/>
        </mxCell>
        <mxCell id="2zjZDI-oLlEaG4J_gdMW-437" value="28&lt;div style=&quot;text-align: center&quot;&gt;&lt;/div&gt;" style="ellipse;whiteSpace=wrap;html=1;strokeColor=#000000;strokeWidth=2;fillColor=none;fontSize=16;align=center;" parent="1" vertex="1">
          <mxGeometry x="800" y="960" width="40" height="40" as="geometry"/>
        </mxCell>
        <mxCell id="2zjZDI-oLlEaG4J_gdMW-438" value="" style="endArrow=none;html=1;fontSize=16;entryX=0.5;entryY=1;entryDx=0;entryDy=0;exitX=0.5;exitY=0;exitDx=0;exitDy=0;" parent="1" source="2zjZDI-oLlEaG4J_gdMW-433" target="2zjZDI-oLlEaG4J_gdMW-432" edge="1">
          <mxGeometry width="50" height="50" relative="1" as="geometry">
            <mxPoint x="720" y="960" as="sourcePoint"/>
            <mxPoint x="745" y="935" as="targetPoint"/>
          </mxGeometry>
        </mxCell>
        <mxCell id="2zjZDI-oLlEaG4J_gdMW-439" value="32&lt;div style=&quot;text-align: center&quot;&gt;&lt;/div&gt;" style="ellipse;whiteSpace=wrap;html=1;strokeColor=#000000;strokeWidth=2;fillColor=none;fontSize=16;align=center;" parent="1" vertex="1">
          <mxGeometry x="880" y="960" width="40" height="40" as="geometry"/>
        </mxCell>
        <mxCell id="2zjZDI-oLlEaG4J_gdMW-440" value="" style="endArrow=none;html=1;fontSize=16;entryX=0.5;entryY=1;entryDx=0;entryDy=0;exitX=0.5;exitY=0;exitDx=0;exitDy=0;" parent="1" source="2zjZDI-oLlEaG4J_gdMW-439" target="2zjZDI-oLlEaG4J_gdMW-432" edge="1">
          <mxGeometry width="50" height="50" relative="1" as="geometry">
            <mxPoint x="40" y="1070" as="sourcePoint"/>
            <mxPoint x="90" y="1020" as="targetPoint"/>
          </mxGeometry>
        </mxCell>
        <mxCell id="2zjZDI-oLlEaG4J_gdMW-441" value="21&amp;nbsp; &amp;nbsp; &amp;nbsp;26&lt;div style=&quot;text-align: center&quot;&gt;&lt;/div&gt;" style="ellipse;whiteSpace=wrap;html=1;strokeColor=#000000;strokeWidth=2;fillColor=none;fontSize=16;align=center;" parent="1" vertex="1">
          <mxGeometry x="610" y="520" width="100" height="40" as="geometry"/>
        </mxCell>
        <mxCell id="2zjZDI-oLlEaG4J_gdMW-442" value="25&lt;div style=&quot;text-align: center&quot;&gt;&lt;/div&gt;" style="ellipse;whiteSpace=wrap;html=1;strokeColor=#000000;strokeWidth=2;fillColor=none;fontSize=16;align=center;" parent="1" vertex="1">
          <mxGeometry x="640" y="600" width="40" height="40" as="geometry"/>
        </mxCell>
        <mxCell id="2zjZDI-oLlEaG4J_gdMW-443" value="" style="endArrow=none;html=1;fontSize=16;entryX=0.5;entryY=1;entryDx=0;entryDy=0;exitX=0.5;exitY=0;exitDx=0;exitDy=0;" parent="1" source="2zjZDI-oLlEaG4J_gdMW-445" target="2zjZDI-oLlEaG4J_gdMW-441" edge="1">
          <mxGeometry width="50" height="50" relative="1" as="geometry">
            <mxPoint x="580" y="580" as="sourcePoint"/>
            <mxPoint x="170" y="620" as="targetPoint"/>
          </mxGeometry>
        </mxCell>
        <mxCell id="2zjZDI-oLlEaG4J_gdMW-444" value="" style="endArrow=none;html=1;fontSize=16;entryX=0.5;entryY=1;entryDx=0;entryDy=0;exitX=0.5;exitY=0;exitDx=0;exitDy=0;" parent="1" source="2zjZDI-oLlEaG4J_gdMW-446" target="2zjZDI-oLlEaG4J_gdMW-441" edge="1">
          <mxGeometry width="50" height="50" relative="1" as="geometry">
            <mxPoint x="690" y="580" as="sourcePoint"/>
            <mxPoint x="170" y="620" as="targetPoint"/>
          </mxGeometry>
        </mxCell>
        <mxCell id="2zjZDI-oLlEaG4J_gdMW-445" value="18&lt;div style=&quot;text-align: center&quot;&gt;&lt;/div&gt;" style="ellipse;whiteSpace=wrap;html=1;strokeColor=#000000;strokeWidth=2;fillColor=none;fontSize=16;align=center;" parent="1" vertex="1">
          <mxGeometry x="560" y="600" width="40" height="40" as="geometry"/>
        </mxCell>
        <mxCell id="2zjZDI-oLlEaG4J_gdMW-446" value="28&lt;div style=&quot;text-align: center&quot;&gt;&lt;/div&gt;" style="ellipse;whiteSpace=wrap;html=1;strokeColor=#000000;strokeWidth=2;fillColor=none;fontSize=16;align=center;" parent="1" vertex="1">
          <mxGeometry x="720" y="600" width="40" height="40" as="geometry"/>
        </mxCell>
        <mxCell id="2zjZDI-oLlEaG4J_gdMW-447" value="" style="endArrow=none;html=1;fontSize=16;entryX=0.5;entryY=1;entryDx=0;entryDy=0;exitX=0.5;exitY=0;exitDx=0;exitDy=0;" parent="1" source="2zjZDI-oLlEaG4J_gdMW-442" target="2zjZDI-oLlEaG4J_gdMW-441" edge="1">
          <mxGeometry width="50" height="50" relative="1" as="geometry">
            <mxPoint x="640" y="600" as="sourcePoint"/>
            <mxPoint x="665" y="575" as="targetPoint"/>
          </mxGeometry>
        </mxCell>
        <mxCell id="2zjZDI-oLlEaG4J_gdMW-448" value="21&lt;div style=&quot;text-align: center&quot;&gt;&lt;/div&gt;" style="ellipse;whiteSpace=wrap;html=1;strokeColor=#000000;strokeWidth=2;fillColor=none;fontSize=16;align=center;" parent="1" vertex="1">
          <mxGeometry x="1080" y="920" width="40" height="40" as="geometry"/>
        </mxCell>
        <mxCell id="2zjZDI-oLlEaG4J_gdMW-449" value="25&lt;div style=&quot;text-align: center&quot;&gt;&lt;/div&gt;" style="ellipse;whiteSpace=wrap;html=1;strokeColor=#000000;strokeWidth=2;fillColor=none;fontSize=16;align=center;" parent="1" vertex="1">
          <mxGeometry x="1120" y="1000" width="40" height="40" as="geometry"/>
        </mxCell>
        <mxCell id="2zjZDI-oLlEaG4J_gdMW-450" value="" style="endArrow=none;html=1;fontSize=16;entryX=0.5;entryY=1;entryDx=0;entryDy=0;exitX=0.5;exitY=0;exitDx=0;exitDy=0;" parent="1" source="2zjZDI-oLlEaG4J_gdMW-452" target="2zjZDI-oLlEaG4J_gdMW-448" edge="1">
          <mxGeometry width="50" height="50" relative="1" as="geometry">
            <mxPoint x="1060" y="980" as="sourcePoint"/>
            <mxPoint x="650" y="1020" as="targetPoint"/>
          </mxGeometry>
        </mxCell>
        <mxCell id="2zjZDI-oLlEaG4J_gdMW-451" value="" style="endArrow=none;html=1;fontSize=16;entryX=0.5;entryY=1;entryDx=0;entryDy=0;exitX=0.5;exitY=0;exitDx=0;exitDy=0;" parent="1" source="2zjZDI-oLlEaG4J_gdMW-453" target="2zjZDI-oLlEaG4J_gdMW-458" edge="1">
          <mxGeometry width="50" height="50" relative="1" as="geometry">
            <mxPoint x="1170" y="980" as="sourcePoint"/>
            <mxPoint x="650" y="1020" as="targetPoint"/>
          </mxGeometry>
        </mxCell>
        <mxCell id="2zjZDI-oLlEaG4J_gdMW-452" value="18&lt;div style=&quot;text-align: center&quot;&gt;&lt;/div&gt;" style="ellipse;whiteSpace=wrap;html=1;strokeColor=#000000;strokeWidth=2;fillColor=none;fontSize=16;align=center;" parent="1" vertex="1">
          <mxGeometry x="1040" y="1000" width="40" height="40" as="geometry"/>
        </mxCell>
        <mxCell id="2zjZDI-oLlEaG4J_gdMW-453" value="28&lt;div style=&quot;text-align: center&quot;&gt;&lt;/div&gt;" style="ellipse;whiteSpace=wrap;html=1;strokeColor=#000000;strokeWidth=2;fillColor=none;fontSize=16;align=center;" parent="1" vertex="1">
          <mxGeometry x="1200" y="1000" width="40" height="40" as="geometry"/>
        </mxCell>
        <mxCell id="2zjZDI-oLlEaG4J_gdMW-454" value="" style="endArrow=none;html=1;fontSize=16;entryX=0.5;entryY=1;entryDx=0;entryDy=0;exitX=0.5;exitY=0;exitDx=0;exitDy=0;" parent="1" source="2zjZDI-oLlEaG4J_gdMW-449" target="2zjZDI-oLlEaG4J_gdMW-448" edge="1">
          <mxGeometry width="50" height="50" relative="1" as="geometry">
            <mxPoint x="1120" y="1000" as="sourcePoint"/>
            <mxPoint x="1145" y="975" as="targetPoint"/>
          </mxGeometry>
        </mxCell>
        <mxCell id="2zjZDI-oLlEaG4J_gdMW-455" value="32&lt;div style=&quot;text-align: center&quot;&gt;&lt;/div&gt;" style="ellipse;whiteSpace=wrap;html=1;strokeColor=#000000;strokeWidth=2;fillColor=none;fontSize=16;align=center;" parent="1" vertex="1">
          <mxGeometry x="1280" y="1000" width="40" height="40" as="geometry"/>
        </mxCell>
        <mxCell id="2zjZDI-oLlEaG4J_gdMW-456" value="" style="endArrow=none;html=1;fontSize=16;entryX=0.5;entryY=1;entryDx=0;entryDy=0;exitX=0.5;exitY=0;exitDx=0;exitDy=0;" parent="1" source="2zjZDI-oLlEaG4J_gdMW-455" target="2zjZDI-oLlEaG4J_gdMW-458" edge="1">
          <mxGeometry width="50" height="50" relative="1" as="geometry">
            <mxPoint x="440" y="1110" as="sourcePoint"/>
            <mxPoint x="490" y="1060" as="targetPoint"/>
          </mxGeometry>
        </mxCell>
        <mxCell id="2zjZDI-oLlEaG4J_gdMW-457" value="26&lt;div style=&quot;text-align: center&quot;&gt;&lt;/div&gt;" style="ellipse;whiteSpace=wrap;html=1;strokeColor=#000000;strokeWidth=2;fillColor=none;fontSize=16;align=center;" parent="1" vertex="1">
          <mxGeometry x="1160" y="840" width="40" height="40" as="geometry"/>
        </mxCell>
        <mxCell id="2zjZDI-oLlEaG4J_gdMW-458" value="31&lt;div style=&quot;text-align: center&quot;&gt;&lt;/div&gt;" style="ellipse;whiteSpace=wrap;html=1;strokeColor=#000000;strokeWidth=2;fillColor=none;fontSize=16;align=center;" parent="1" vertex="1">
          <mxGeometry x="1240" y="920" width="40" height="40" as="geometry"/>
        </mxCell>
        <mxCell id="2zjZDI-oLlEaG4J_gdMW-459" value="" style="endArrow=none;html=1;fontSize=16;entryX=0.5;entryY=1;entryDx=0;entryDy=0;exitX=0.5;exitY=0;exitDx=0;exitDy=0;" parent="1" source="2zjZDI-oLlEaG4J_gdMW-448" target="2zjZDI-oLlEaG4J_gdMW-457" edge="1">
          <mxGeometry width="50" height="50" relative="1" as="geometry">
            <mxPoint x="1070" y="1010" as="sourcePoint"/>
            <mxPoint x="1110" y="970" as="targetPoint"/>
          </mxGeometry>
        </mxCell>
        <mxCell id="2zjZDI-oLlEaG4J_gdMW-461" value="" style="endArrow=none;html=1;fontSize=16;entryX=0.5;entryY=1;entryDx=0;entryDy=0;exitX=0.5;exitY=0;exitDx=0;exitDy=0;" parent="1" source="2zjZDI-oLlEaG4J_gdMW-458" target="2zjZDI-oLlEaG4J_gdMW-457" edge="1">
          <mxGeometry width="50" height="50" relative="1" as="geometry">
            <mxPoint x="1310" y="1010" as="sourcePoint"/>
            <mxPoint x="1270" y="970" as="targetPoint"/>
          </mxGeometry>
        </mxCell>
        <mxCell id="2zjZDI-oLlEaG4J_gdMW-462" value="" style="endArrow=classic;html=1;fontSize=16;" parent="1" edge="1">
          <mxGeometry width="50" height="50" relative="1" as="geometry">
            <mxPoint x="960" y="940" as="sourcePoint"/>
            <mxPoint x="1000" y="940" as="targetPoint"/>
          </mxGeometry>
        </mxCell>
        <mxCell id="2zjZDI-oLlEaG4J_gdMW-463" value="ADD 35&amp;nbsp;" style="text;html=1;strokeColor=#6c8ebf;fillColor=#dae8fc;align=center;verticalAlign=middle;whiteSpace=wrap;rounded=0;fontSize=16;" parent="1" vertex="1">
          <mxGeometry x="40" y="1080" width="80" height="40" as="geometry"/>
        </mxCell>
        <mxCell id="2zjZDI-oLlEaG4J_gdMW-464" value="21&lt;div style=&quot;text-align: center&quot;&gt;&lt;/div&gt;" style="ellipse;whiteSpace=wrap;html=1;strokeColor=#000000;strokeWidth=2;fillColor=none;fontSize=16;align=center;" parent="1" vertex="1">
          <mxGeometry x="240" y="1160" width="40" height="40" as="geometry"/>
        </mxCell>
        <mxCell id="2zjZDI-oLlEaG4J_gdMW-465" value="25&lt;div style=&quot;text-align: center&quot;&gt;&lt;/div&gt;" style="ellipse;whiteSpace=wrap;html=1;strokeColor=#000000;strokeWidth=2;fillColor=none;fontSize=16;align=center;" parent="1" vertex="1">
          <mxGeometry x="280" y="1240" width="40" height="40" as="geometry"/>
        </mxCell>
        <mxCell id="2zjZDI-oLlEaG4J_gdMW-466" value="" style="endArrow=none;html=1;fontSize=16;entryX=0.5;entryY=1;entryDx=0;entryDy=0;exitX=0.5;exitY=0;exitDx=0;exitDy=0;" parent="1" source="2zjZDI-oLlEaG4J_gdMW-468" target="2zjZDI-oLlEaG4J_gdMW-464" edge="1">
          <mxGeometry width="50" height="50" relative="1" as="geometry">
            <mxPoint x="220" y="1220" as="sourcePoint"/>
            <mxPoint x="-190" y="1260" as="targetPoint"/>
          </mxGeometry>
        </mxCell>
        <mxCell id="2zjZDI-oLlEaG4J_gdMW-467" value="" style="endArrow=none;html=1;fontSize=16;entryX=0.5;entryY=1;entryDx=0;entryDy=0;exitX=0.5;exitY=0;exitDx=0;exitDy=0;" parent="1" source="2zjZDI-oLlEaG4J_gdMW-469" target="2zjZDI-oLlEaG4J_gdMW-474" edge="1">
          <mxGeometry width="50" height="50" relative="1" as="geometry">
            <mxPoint x="330" y="1220" as="sourcePoint"/>
            <mxPoint x="-190" y="1260" as="targetPoint"/>
          </mxGeometry>
        </mxCell>
        <mxCell id="2zjZDI-oLlEaG4J_gdMW-468" value="18&lt;div style=&quot;text-align: center&quot;&gt;&lt;/div&gt;" style="ellipse;whiteSpace=wrap;html=1;strokeColor=#000000;strokeWidth=2;fillColor=none;fontSize=16;align=center;" parent="1" vertex="1">
          <mxGeometry x="200" y="1240" width="40" height="40" as="geometry"/>
        </mxCell>
        <mxCell id="2zjZDI-oLlEaG4J_gdMW-469" value="28&lt;div style=&quot;text-align: center&quot;&gt;&lt;/div&gt;" style="ellipse;whiteSpace=wrap;html=1;strokeColor=#000000;strokeWidth=2;fillColor=none;fontSize=16;align=center;" parent="1" vertex="1">
          <mxGeometry x="360" y="1240" width="40" height="40" as="geometry"/>
        </mxCell>
        <mxCell id="2zjZDI-oLlEaG4J_gdMW-470" value="" style="endArrow=none;html=1;fontSize=16;entryX=0.5;entryY=1;entryDx=0;entryDy=0;exitX=0.5;exitY=0;exitDx=0;exitDy=0;" parent="1" source="2zjZDI-oLlEaG4J_gdMW-465" target="2zjZDI-oLlEaG4J_gdMW-464" edge="1">
          <mxGeometry width="50" height="50" relative="1" as="geometry">
            <mxPoint x="280" y="1240" as="sourcePoint"/>
            <mxPoint x="305" y="1215" as="targetPoint"/>
          </mxGeometry>
        </mxCell>
        <mxCell id="2zjZDI-oLlEaG4J_gdMW-471" value="32&amp;nbsp; &amp;nbsp; &amp;nbsp;35&lt;div style=&quot;text-align: center&quot;&gt;&lt;/div&gt;" style="ellipse;whiteSpace=wrap;html=1;strokeColor=#000000;strokeWidth=2;fillColor=none;fontSize=16;align=center;" parent="1" vertex="1">
          <mxGeometry x="440" y="1240" width="100" height="40" as="geometry"/>
        </mxCell>
        <mxCell id="2zjZDI-oLlEaG4J_gdMW-472" value="" style="endArrow=none;html=1;fontSize=16;entryX=0.5;entryY=1;entryDx=0;entryDy=0;exitX=0.5;exitY=0;exitDx=0;exitDy=0;" parent="1" source="2zjZDI-oLlEaG4J_gdMW-471" target="2zjZDI-oLlEaG4J_gdMW-474" edge="1">
          <mxGeometry width="50" height="50" relative="1" as="geometry">
            <mxPoint x="-400" y="1350" as="sourcePoint"/>
            <mxPoint x="-350" y="1300" as="targetPoint"/>
          </mxGeometry>
        </mxCell>
        <mxCell id="2zjZDI-oLlEaG4J_gdMW-473" value="26&lt;div style=&quot;text-align: center&quot;&gt;&lt;/div&gt;" style="ellipse;whiteSpace=wrap;html=1;strokeColor=#000000;strokeWidth=2;fillColor=none;fontSize=16;align=center;" parent="1" vertex="1">
          <mxGeometry x="320" y="1080" width="40" height="40" as="geometry"/>
        </mxCell>
        <mxCell id="2zjZDI-oLlEaG4J_gdMW-474" value="31&lt;div style=&quot;text-align: center&quot;&gt;&lt;/div&gt;" style="ellipse;whiteSpace=wrap;html=1;strokeColor=#000000;strokeWidth=2;fillColor=none;fontSize=16;align=center;" parent="1" vertex="1">
          <mxGeometry x="400" y="1160" width="40" height="40" as="geometry"/>
        </mxCell>
        <mxCell id="2zjZDI-oLlEaG4J_gdMW-475" value="" style="endArrow=none;html=1;fontSize=16;entryX=0.5;entryY=1;entryDx=0;entryDy=0;exitX=0.5;exitY=0;exitDx=0;exitDy=0;" parent="1" source="2zjZDI-oLlEaG4J_gdMW-464" target="2zjZDI-oLlEaG4J_gdMW-473" edge="1">
          <mxGeometry width="50" height="50" relative="1" as="geometry">
            <mxPoint x="230" y="1250" as="sourcePoint"/>
            <mxPoint x="270" y="1210" as="targetPoint"/>
          </mxGeometry>
        </mxCell>
        <mxCell id="2zjZDI-oLlEaG4J_gdMW-476" value="" style="endArrow=none;html=1;fontSize=16;entryX=0.5;entryY=1;entryDx=0;entryDy=0;exitX=0.5;exitY=0;exitDx=0;exitDy=0;" parent="1" source="2zjZDI-oLlEaG4J_gdMW-474" target="2zjZDI-oLlEaG4J_gdMW-473" edge="1">
          <mxGeometry width="50" height="50" relative="1" as="geometry">
            <mxPoint x="470" y="1250" as="sourcePoint"/>
            <mxPoint x="430" y="1210" as="targetPoint"/>
          </mxGeometry>
        </mxCell>
        <mxCell id="2zjZDI-oLlEaG4J_gdMW-477" value="ADD 38&amp;nbsp;" style="text;html=1;strokeColor=#6c8ebf;fillColor=#dae8fc;align=center;verticalAlign=middle;whiteSpace=wrap;rounded=0;fontSize=16;" parent="1" vertex="1">
          <mxGeometry x="40" y="1320" width="80" height="40" as="geometry"/>
        </mxCell>
        <mxCell id="2zjZDI-oLlEaG4J_gdMW-478" value="21&lt;div style=&quot;text-align: center&quot;&gt;&lt;/div&gt;" style="ellipse;whiteSpace=wrap;html=1;strokeColor=#000000;strokeWidth=2;fillColor=none;fontSize=16;align=center;" parent="1" vertex="1">
          <mxGeometry x="240" y="1400" width="40" height="40" as="geometry"/>
        </mxCell>
        <mxCell id="2zjZDI-oLlEaG4J_gdMW-479" value="25&lt;div style=&quot;text-align: center&quot;&gt;&lt;/div&gt;" style="ellipse;whiteSpace=wrap;html=1;strokeColor=#000000;strokeWidth=2;fillColor=none;fontSize=16;align=center;" parent="1" vertex="1">
          <mxGeometry x="280" y="1480" width="40" height="40" as="geometry"/>
        </mxCell>
        <mxCell id="2zjZDI-oLlEaG4J_gdMW-480" value="" style="endArrow=none;html=1;fontSize=16;entryX=0.5;entryY=1;entryDx=0;entryDy=0;exitX=0.5;exitY=0;exitDx=0;exitDy=0;" parent="1" source="2zjZDI-oLlEaG4J_gdMW-482" target="2zjZDI-oLlEaG4J_gdMW-478" edge="1">
          <mxGeometry width="50" height="50" relative="1" as="geometry">
            <mxPoint x="220" y="1460" as="sourcePoint"/>
            <mxPoint x="-190" y="1500" as="targetPoint"/>
          </mxGeometry>
        </mxCell>
        <mxCell id="2zjZDI-oLlEaG4J_gdMW-481" value="" style="endArrow=none;html=1;fontSize=16;entryX=0.5;entryY=1;entryDx=0;entryDy=0;exitX=0.5;exitY=0;exitDx=0;exitDy=0;" parent="1" source="2zjZDI-oLlEaG4J_gdMW-483" target="2zjZDI-oLlEaG4J_gdMW-488" edge="1">
          <mxGeometry width="50" height="50" relative="1" as="geometry">
            <mxPoint x="330" y="1460" as="sourcePoint"/>
            <mxPoint x="-190" y="1500" as="targetPoint"/>
          </mxGeometry>
        </mxCell>
        <mxCell id="2zjZDI-oLlEaG4J_gdMW-482" value="18&lt;div style=&quot;text-align: center&quot;&gt;&lt;/div&gt;" style="ellipse;whiteSpace=wrap;html=1;strokeColor=#000000;strokeWidth=2;fillColor=none;fontSize=16;align=center;" parent="1" vertex="1">
          <mxGeometry x="200" y="1480" width="40" height="40" as="geometry"/>
        </mxCell>
        <mxCell id="2zjZDI-oLlEaG4J_gdMW-483" value="28&lt;div style=&quot;text-align: center&quot;&gt;&lt;/div&gt;" style="ellipse;whiteSpace=wrap;html=1;strokeColor=#000000;strokeWidth=2;fillColor=none;fontSize=16;align=center;" parent="1" vertex="1">
          <mxGeometry x="360" y="1480" width="40" height="40" as="geometry"/>
        </mxCell>
        <mxCell id="2zjZDI-oLlEaG4J_gdMW-484" value="" style="endArrow=none;html=1;fontSize=16;entryX=0.5;entryY=1;entryDx=0;entryDy=0;exitX=0.5;exitY=0;exitDx=0;exitDy=0;" parent="1" source="2zjZDI-oLlEaG4J_gdMW-479" target="2zjZDI-oLlEaG4J_gdMW-478" edge="1">
          <mxGeometry width="50" height="50" relative="1" as="geometry">
            <mxPoint x="280" y="1480" as="sourcePoint"/>
            <mxPoint x="305" y="1455" as="targetPoint"/>
          </mxGeometry>
        </mxCell>
        <mxCell id="2zjZDI-oLlEaG4J_gdMW-485" value="32&amp;nbsp; &amp;nbsp; &amp;nbsp;35&amp;nbsp; &amp;nbsp; &amp;nbsp;38&lt;div style=&quot;text-align: center&quot;&gt;&lt;/div&gt;" style="ellipse;whiteSpace=wrap;html=1;strokeColor=#000000;strokeWidth=2;fillColor=none;fontSize=16;align=center;" parent="1" vertex="1">
          <mxGeometry x="440" y="1480" width="160" height="40" as="geometry"/>
        </mxCell>
        <mxCell id="2zjZDI-oLlEaG4J_gdMW-486" value="" style="endArrow=none;html=1;fontSize=16;entryX=0.5;entryY=1;entryDx=0;entryDy=0;exitX=0.5;exitY=0;exitDx=0;exitDy=0;" parent="1" source="2zjZDI-oLlEaG4J_gdMW-485" target="2zjZDI-oLlEaG4J_gdMW-488" edge="1">
          <mxGeometry width="50" height="50" relative="1" as="geometry">
            <mxPoint x="-400" y="1590" as="sourcePoint"/>
            <mxPoint x="-350" y="1540" as="targetPoint"/>
          </mxGeometry>
        </mxCell>
        <mxCell id="2zjZDI-oLlEaG4J_gdMW-487" value="26&lt;div style=&quot;text-align: center&quot;&gt;&lt;/div&gt;" style="ellipse;whiteSpace=wrap;html=1;strokeColor=#000000;strokeWidth=2;fillColor=none;fontSize=16;align=center;" parent="1" vertex="1">
          <mxGeometry x="320" y="1320" width="40" height="40" as="geometry"/>
        </mxCell>
        <mxCell id="2zjZDI-oLlEaG4J_gdMW-488" value="31&lt;div style=&quot;text-align: center&quot;&gt;&lt;/div&gt;" style="ellipse;whiteSpace=wrap;html=1;strokeColor=#000000;strokeWidth=2;fillColor=none;fontSize=16;align=center;" parent="1" vertex="1">
          <mxGeometry x="400" y="1400" width="40" height="40" as="geometry"/>
        </mxCell>
        <mxCell id="2zjZDI-oLlEaG4J_gdMW-489" value="" style="endArrow=none;html=1;fontSize=16;entryX=0.5;entryY=1;entryDx=0;entryDy=0;exitX=0.5;exitY=0;exitDx=0;exitDy=0;" parent="1" source="2zjZDI-oLlEaG4J_gdMW-478" target="2zjZDI-oLlEaG4J_gdMW-487" edge="1">
          <mxGeometry width="50" height="50" relative="1" as="geometry">
            <mxPoint x="230" y="1490" as="sourcePoint"/>
            <mxPoint x="270" y="1450" as="targetPoint"/>
          </mxGeometry>
        </mxCell>
        <mxCell id="2zjZDI-oLlEaG4J_gdMW-490" value="" style="endArrow=none;html=1;fontSize=16;entryX=0.5;entryY=1;entryDx=0;entryDy=0;exitX=0.5;exitY=0;exitDx=0;exitDy=0;" parent="1" source="2zjZDI-oLlEaG4J_gdMW-488" target="2zjZDI-oLlEaG4J_gdMW-487" edge="1">
          <mxGeometry width="50" height="50" relative="1" as="geometry">
            <mxPoint x="470" y="1490" as="sourcePoint"/>
            <mxPoint x="430" y="1450" as="targetPoint"/>
          </mxGeometry>
        </mxCell>
        <mxCell id="2zjZDI-oLlEaG4J_gdMW-491" value="21&lt;div style=&quot;text-align: center&quot;&gt;&lt;/div&gt;" style="ellipse;whiteSpace=wrap;html=1;strokeColor=#000000;strokeWidth=2;fillColor=none;fontSize=16;align=center;" parent="1" vertex="1">
          <mxGeometry x="760" y="1400" width="40" height="40" as="geometry"/>
        </mxCell>
        <mxCell id="2zjZDI-oLlEaG4J_gdMW-492" value="25&lt;div style=&quot;text-align: center&quot;&gt;&lt;/div&gt;" style="ellipse;whiteSpace=wrap;html=1;strokeColor=#000000;strokeWidth=2;fillColor=none;fontSize=16;align=center;" parent="1" vertex="1">
          <mxGeometry x="800" y="1480" width="40" height="40" as="geometry"/>
        </mxCell>
        <mxCell id="2zjZDI-oLlEaG4J_gdMW-493" value="" style="endArrow=none;html=1;fontSize=16;entryX=0.5;entryY=1;entryDx=0;entryDy=0;exitX=0.5;exitY=0;exitDx=0;exitDy=0;" parent="1" source="2zjZDI-oLlEaG4J_gdMW-495" target="2zjZDI-oLlEaG4J_gdMW-491" edge="1">
          <mxGeometry width="50" height="50" relative="1" as="geometry">
            <mxPoint x="740" y="1460" as="sourcePoint"/>
            <mxPoint x="330" y="1500" as="targetPoint"/>
          </mxGeometry>
        </mxCell>
        <mxCell id="2zjZDI-oLlEaG4J_gdMW-494" value="" style="endArrow=none;html=1;fontSize=16;entryX=0.5;entryY=1;entryDx=0;entryDy=0;exitX=0.5;exitY=0;exitDx=0;exitDy=0;" parent="1" source="2zjZDI-oLlEaG4J_gdMW-496" target="2zjZDI-oLlEaG4J_gdMW-501" edge="1">
          <mxGeometry width="50" height="50" relative="1" as="geometry">
            <mxPoint x="850" y="1460" as="sourcePoint"/>
            <mxPoint x="330" y="1500" as="targetPoint"/>
          </mxGeometry>
        </mxCell>
        <mxCell id="2zjZDI-oLlEaG4J_gdMW-495" value="18&lt;div style=&quot;text-align: center&quot;&gt;&lt;/div&gt;" style="ellipse;whiteSpace=wrap;html=1;strokeColor=#000000;strokeWidth=2;fillColor=none;fontSize=16;align=center;" parent="1" vertex="1">
          <mxGeometry x="720" y="1480" width="40" height="40" as="geometry"/>
        </mxCell>
        <mxCell id="2zjZDI-oLlEaG4J_gdMW-496" value="28&lt;div style=&quot;text-align: center&quot;&gt;&lt;/div&gt;" style="ellipse;whiteSpace=wrap;html=1;strokeColor=#000000;strokeWidth=2;fillColor=none;fontSize=16;align=center;" parent="1" vertex="1">
          <mxGeometry x="880" y="1480" width="40" height="40" as="geometry"/>
        </mxCell>
        <mxCell id="2zjZDI-oLlEaG4J_gdMW-497" value="" style="endArrow=none;html=1;fontSize=16;entryX=0.5;entryY=1;entryDx=0;entryDy=0;exitX=0.5;exitY=0;exitDx=0;exitDy=0;" parent="1" source="2zjZDI-oLlEaG4J_gdMW-492" target="2zjZDI-oLlEaG4J_gdMW-491" edge="1">
          <mxGeometry width="50" height="50" relative="1" as="geometry">
            <mxPoint x="800" y="1480" as="sourcePoint"/>
            <mxPoint x="825" y="1455" as="targetPoint"/>
          </mxGeometry>
        </mxCell>
        <mxCell id="2zjZDI-oLlEaG4J_gdMW-498" value="32&lt;div style=&quot;text-align: center&quot;&gt;&lt;/div&gt;" style="ellipse;whiteSpace=wrap;html=1;strokeColor=#000000;strokeWidth=2;fillColor=none;fontSize=16;align=center;" parent="1" vertex="1">
          <mxGeometry x="960" y="1480" width="40" height="40" as="geometry"/>
        </mxCell>
        <mxCell id="2zjZDI-oLlEaG4J_gdMW-499" value="" style="endArrow=none;html=1;fontSize=16;entryX=0.5;entryY=1;entryDx=0;entryDy=0;exitX=0.5;exitY=0;exitDx=0;exitDy=0;" parent="1" source="2zjZDI-oLlEaG4J_gdMW-498" target="2zjZDI-oLlEaG4J_gdMW-501" edge="1">
          <mxGeometry width="50" height="50" relative="1" as="geometry">
            <mxPoint x="120" y="1590" as="sourcePoint"/>
            <mxPoint x="170" y="1540" as="targetPoint"/>
          </mxGeometry>
        </mxCell>
        <mxCell id="2zjZDI-oLlEaG4J_gdMW-500" value="26&lt;div style=&quot;text-align: center&quot;&gt;&lt;/div&gt;" style="ellipse;whiteSpace=wrap;html=1;strokeColor=#000000;strokeWidth=2;fillColor=none;fontSize=16;align=center;" parent="1" vertex="1">
          <mxGeometry x="840" y="1320" width="40" height="40" as="geometry"/>
        </mxCell>
        <mxCell id="2zjZDI-oLlEaG4J_gdMW-501" value="31&amp;nbsp; &amp;nbsp; &amp;nbsp;35&lt;div style=&quot;text-align: center&quot;&gt;&lt;/div&gt;" style="ellipse;whiteSpace=wrap;html=1;strokeColor=#000000;strokeWidth=2;fillColor=none;fontSize=16;align=center;" parent="1" vertex="1">
          <mxGeometry x="930" y="1400" width="100" height="40" as="geometry"/>
        </mxCell>
        <mxCell id="2zjZDI-oLlEaG4J_gdMW-502" value="" style="endArrow=none;html=1;fontSize=16;entryX=0.5;entryY=1;entryDx=0;entryDy=0;exitX=0.5;exitY=0;exitDx=0;exitDy=0;" parent="1" source="2zjZDI-oLlEaG4J_gdMW-491" target="2zjZDI-oLlEaG4J_gdMW-500" edge="1">
          <mxGeometry width="50" height="50" relative="1" as="geometry">
            <mxPoint x="750" y="1490" as="sourcePoint"/>
            <mxPoint x="790" y="1450" as="targetPoint"/>
          </mxGeometry>
        </mxCell>
        <mxCell id="2zjZDI-oLlEaG4J_gdMW-503" value="" style="endArrow=none;html=1;fontSize=16;entryX=0.5;entryY=1;entryDx=0;entryDy=0;exitX=0.5;exitY=0;exitDx=0;exitDy=0;" parent="1" source="2zjZDI-oLlEaG4J_gdMW-501" target="2zjZDI-oLlEaG4J_gdMW-500" edge="1">
          <mxGeometry width="50" height="50" relative="1" as="geometry">
            <mxPoint x="990" y="1490" as="sourcePoint"/>
            <mxPoint x="950" y="1450" as="targetPoint"/>
          </mxGeometry>
        </mxCell>
        <mxCell id="2zjZDI-oLlEaG4J_gdMW-504" value="" style="endArrow=classic;html=1;fontSize=16;" parent="1" edge="1">
          <mxGeometry width="50" height="50" relative="1" as="geometry">
            <mxPoint x="640" y="1420" as="sourcePoint"/>
            <mxPoint x="680" y="1420" as="targetPoint"/>
          </mxGeometry>
        </mxCell>
        <mxCell id="2zjZDI-oLlEaG4J_gdMW-505" value="38&lt;div style=&quot;text-align: center&quot;&gt;&lt;/div&gt;" style="ellipse;whiteSpace=wrap;html=1;strokeColor=#000000;strokeWidth=2;fillColor=none;fontSize=16;align=center;" parent="1" vertex="1">
          <mxGeometry x="1040" y="1480" width="40" height="40" as="geometry"/>
        </mxCell>
        <mxCell id="2zjZDI-oLlEaG4J_gdMW-506" value="" style="endArrow=none;html=1;fontSize=16;entryX=0.5;entryY=1;entryDx=0;entryDy=0;exitX=0.5;exitY=0;exitDx=0;exitDy=0;" parent="1" source="2zjZDI-oLlEaG4J_gdMW-505" target="2zjZDI-oLlEaG4J_gdMW-501" edge="1">
          <mxGeometry width="50" height="50" relative="1" as="geometry">
            <mxPoint x="130" y="1590" as="sourcePoint"/>
            <mxPoint x="180" y="1540" as="targetPoint"/>
          </mxGeometry>
        </mxCell>
        <mxCell id="2zjZDI-oLlEaG4J_gdMW-507" value="ADD 41&amp;nbsp;" style="text;html=1;strokeColor=#6c8ebf;fillColor=#dae8fc;align=center;verticalAlign=middle;whiteSpace=wrap;rounded=0;fontSize=16;" parent="1" vertex="1">
          <mxGeometry x="40" y="1560" width="80" height="40" as="geometry"/>
        </mxCell>
        <mxCell id="2zjZDI-oLlEaG4J_gdMW-508" value="21&lt;div style=&quot;text-align: center&quot;&gt;&lt;/div&gt;" style="ellipse;whiteSpace=wrap;html=1;strokeColor=#000000;strokeWidth=2;fillColor=none;fontSize=16;align=center;" parent="1" vertex="1">
          <mxGeometry x="240" y="1640" width="40" height="40" as="geometry"/>
        </mxCell>
        <mxCell id="2zjZDI-oLlEaG4J_gdMW-509" value="25&lt;div style=&quot;text-align: center&quot;&gt;&lt;/div&gt;" style="ellipse;whiteSpace=wrap;html=1;strokeColor=#000000;strokeWidth=2;fillColor=none;fontSize=16;align=center;" parent="1" vertex="1">
          <mxGeometry x="280" y="1720" width="40" height="40" as="geometry"/>
        </mxCell>
        <mxCell id="2zjZDI-oLlEaG4J_gdMW-510" value="" style="endArrow=none;html=1;fontSize=16;entryX=0.5;entryY=1;entryDx=0;entryDy=0;exitX=0.5;exitY=0;exitDx=0;exitDy=0;" parent="1" source="2zjZDI-oLlEaG4J_gdMW-512" target="2zjZDI-oLlEaG4J_gdMW-508" edge="1">
          <mxGeometry width="50" height="50" relative="1" as="geometry">
            <mxPoint x="220" y="1700" as="sourcePoint"/>
            <mxPoint x="-190" y="1740" as="targetPoint"/>
          </mxGeometry>
        </mxCell>
        <mxCell id="2zjZDI-oLlEaG4J_gdMW-511" value="" style="endArrow=none;html=1;fontSize=16;entryX=0.5;entryY=1;entryDx=0;entryDy=0;exitX=0.5;exitY=0;exitDx=0;exitDy=0;" parent="1" source="2zjZDI-oLlEaG4J_gdMW-513" target="2zjZDI-oLlEaG4J_gdMW-518" edge="1">
          <mxGeometry width="50" height="50" relative="1" as="geometry">
            <mxPoint x="330" y="1700" as="sourcePoint"/>
            <mxPoint x="-190" y="1740" as="targetPoint"/>
          </mxGeometry>
        </mxCell>
        <mxCell id="2zjZDI-oLlEaG4J_gdMW-512" value="18&lt;div style=&quot;text-align: center&quot;&gt;&lt;/div&gt;" style="ellipse;whiteSpace=wrap;html=1;strokeColor=#000000;strokeWidth=2;fillColor=none;fontSize=16;align=center;" parent="1" vertex="1">
          <mxGeometry x="200" y="1720" width="40" height="40" as="geometry"/>
        </mxCell>
        <mxCell id="2zjZDI-oLlEaG4J_gdMW-513" value="28&lt;div style=&quot;text-align: center&quot;&gt;&lt;/div&gt;" style="ellipse;whiteSpace=wrap;html=1;strokeColor=#000000;strokeWidth=2;fillColor=none;fontSize=16;align=center;" parent="1" vertex="1">
          <mxGeometry x="360" y="1720" width="40" height="40" as="geometry"/>
        </mxCell>
        <mxCell id="2zjZDI-oLlEaG4J_gdMW-514" value="" style="endArrow=none;html=1;fontSize=16;entryX=0.5;entryY=1;entryDx=0;entryDy=0;exitX=0.5;exitY=0;exitDx=0;exitDy=0;" parent="1" source="2zjZDI-oLlEaG4J_gdMW-509" target="2zjZDI-oLlEaG4J_gdMW-508" edge="1">
          <mxGeometry width="50" height="50" relative="1" as="geometry">
            <mxPoint x="280" y="1720" as="sourcePoint"/>
            <mxPoint x="305" y="1695" as="targetPoint"/>
          </mxGeometry>
        </mxCell>
        <mxCell id="2zjZDI-oLlEaG4J_gdMW-515" value="32&lt;div style=&quot;text-align: center&quot;&gt;&lt;/div&gt;" style="ellipse;whiteSpace=wrap;html=1;strokeColor=#000000;strokeWidth=2;fillColor=none;fontSize=16;align=center;" parent="1" vertex="1">
          <mxGeometry x="440" y="1720" width="40" height="40" as="geometry"/>
        </mxCell>
        <mxCell id="2zjZDI-oLlEaG4J_gdMW-516" value="" style="endArrow=none;html=1;fontSize=16;entryX=0.5;entryY=1;entryDx=0;entryDy=0;exitX=0.5;exitY=0;exitDx=0;exitDy=0;" parent="1" source="2zjZDI-oLlEaG4J_gdMW-515" target="2zjZDI-oLlEaG4J_gdMW-518" edge="1">
          <mxGeometry width="50" height="50" relative="1" as="geometry">
            <mxPoint x="-400" y="1830" as="sourcePoint"/>
            <mxPoint x="-350" y="1780" as="targetPoint"/>
          </mxGeometry>
        </mxCell>
        <mxCell id="2zjZDI-oLlEaG4J_gdMW-517" value="26&lt;div style=&quot;text-align: center&quot;&gt;&lt;/div&gt;" style="ellipse;whiteSpace=wrap;html=1;strokeColor=#000000;strokeWidth=2;fillColor=none;fontSize=16;align=center;" parent="1" vertex="1">
          <mxGeometry x="320" y="1560" width="40" height="40" as="geometry"/>
        </mxCell>
        <mxCell id="2zjZDI-oLlEaG4J_gdMW-518" value="31&amp;nbsp; &amp;nbsp; &amp;nbsp;35&lt;div style=&quot;text-align: center&quot;&gt;&lt;/div&gt;" style="ellipse;whiteSpace=wrap;html=1;strokeColor=#000000;strokeWidth=2;fillColor=none;fontSize=16;align=center;" parent="1" vertex="1">
          <mxGeometry x="410" y="1640" width="100" height="40" as="geometry"/>
        </mxCell>
        <mxCell id="2zjZDI-oLlEaG4J_gdMW-519" value="" style="endArrow=none;html=1;fontSize=16;entryX=0.5;entryY=1;entryDx=0;entryDy=0;exitX=0.5;exitY=0;exitDx=0;exitDy=0;" parent="1" source="2zjZDI-oLlEaG4J_gdMW-508" target="2zjZDI-oLlEaG4J_gdMW-517" edge="1">
          <mxGeometry width="50" height="50" relative="1" as="geometry">
            <mxPoint x="230" y="1730" as="sourcePoint"/>
            <mxPoint x="270" y="1690" as="targetPoint"/>
          </mxGeometry>
        </mxCell>
        <mxCell id="2zjZDI-oLlEaG4J_gdMW-520" value="" style="endArrow=none;html=1;fontSize=16;entryX=0.5;entryY=1;entryDx=0;entryDy=0;exitX=0.5;exitY=0;exitDx=0;exitDy=0;" parent="1" source="2zjZDI-oLlEaG4J_gdMW-518" target="2zjZDI-oLlEaG4J_gdMW-517" edge="1">
          <mxGeometry width="50" height="50" relative="1" as="geometry">
            <mxPoint x="470" y="1730" as="sourcePoint"/>
            <mxPoint x="430" y="1690" as="targetPoint"/>
          </mxGeometry>
        </mxCell>
        <mxCell id="2zjZDI-oLlEaG4J_gdMW-521" value="38&amp;nbsp; &amp;nbsp; &amp;nbsp;41&lt;div style=&quot;text-align: center&quot;&gt;&lt;/div&gt;" style="ellipse;whiteSpace=wrap;html=1;strokeColor=#000000;strokeWidth=2;fillColor=none;fontSize=16;align=center;" parent="1" vertex="1">
          <mxGeometry x="520" y="1720" width="100" height="40" as="geometry"/>
        </mxCell>
        <mxCell id="2zjZDI-oLlEaG4J_gdMW-522" value="" style="endArrow=none;html=1;fontSize=16;entryX=0.5;entryY=1;entryDx=0;entryDy=0;exitX=0.5;exitY=0;exitDx=0;exitDy=0;" parent="1" source="2zjZDI-oLlEaG4J_gdMW-521" target="2zjZDI-oLlEaG4J_gdMW-518" edge="1">
          <mxGeometry width="50" height="50" relative="1" as="geometry">
            <mxPoint x="-390" y="1830" as="sourcePoint"/>
            <mxPoint x="-340" y="1780" as="targetPoint"/>
          </mxGeometry>
        </mxCell>
      </root>
    </mxGraphModel>
  </diagram>
</mxfile>
